<svg width="407" height="432" viewBox="0 0 407 432" fill="none" xmlns="http://www.w3.org/2000/svg">
<path d="M319.244 321.401H370.295C375.328 321.401 379.642 317.087 379.642 312.054V284.731H397.617C402.651 284.731 406.965 280.417 406.965 275.384V36.6698C406.965 31.6366 402.651 27.3226 397.617 27.3226H321.401L314.211 5.75206C313.492 2.87599 309.897 0 305.583 0H102.101C98.5055 0 94.9105 2.87625 93.4724 6.47134L86.2822 28.0419H9.34727C4.31413 28.0419 0 32.3559 0 37.3891V276.103C0 281.137 4.31413 285.451 9.34727 285.451H28.0418V312.773C28.0418 317.806 32.3558 322.12 37.389 322.12H88.4393L47.4553 419.188C44.5792 424.221 48.8933 431.411 55.3644 431.411H92.7535C95.6296 431.411 98.5056 429.973 100.663 427.097L128.704 385.394C130.142 385.394 121.514 385.394 176.16 385.394V422.064C176.16 427.097 180.474 431.411 185.507 431.411H222.896C227.929 431.411 232.243 427.097 232.243 422.064V385.394C286.889 385.394 278.979 385.394 279.698 385.394L307.74 427.097C309.178 429.254 312.054 431.411 315.649 431.411C317.087 431.411 353.757 431.411 353.038 431.411C359.509 431.411 364.542 424.221 360.947 418.469L319.244 321.401ZM388.989 266.037C383.956 266.037 347.286 266.037 333.625 266.037V46.0174H388.989V266.037ZM108.572 18.6943H299.112L301.988 28.0419H105.696L108.572 18.6943ZM314.93 46.0174V194.135L232.243 92.7536C228.648 88.4395 221.458 88.4395 217.863 92.7536L163.217 159.622L125.828 114.324C122.233 110.01 115.043 110.01 111.448 114.324L32.3558 210.672H18.6945V46.0174C122.233 46.0174 212.83 46.0174 314.93 46.0174ZM121.514 210.672H56.0835L118.638 134.457L151.713 174.003C105.696 230.086 127.985 202.763 121.514 210.672ZM225.772 112.886L305.583 209.954H145.242L225.772 112.886ZM17.9755 229.367H36.67C69.0258 229.367 283.293 229.367 314.93 229.367V266.037C271.789 266.037 85.5632 266.037 17.9755 266.037V229.367ZM46.0173 284.731H361.666V302.707C226.491 302.707 179.755 302.707 46.0173 302.707V284.731ZM87.7203 412.717H69.7448L108.572 320.682H150.275L87.7203 412.717ZM140.209 367.418L171.846 321.401H176.16V367.418H140.209ZM213.549 412.717H195.573V321.401H213.549V412.717ZM231.524 367.418V321.401H235.838L267.475 367.418H231.524ZM319.963 412.717L258.128 320.682H299.831L338.658 412.717H319.963Z" fill="url(#paint0_linear_318_330)"/>
<path d="M162.496 110.012C175.438 110.012 185.504 99.9457 185.504 87.0034C185.504 74.061 175.438 63.9951 162.496 63.9951C149.553 63.9951 139.487 74.061 139.487 87.0034C138.768 99.9457 149.553 110.012 162.496 110.012ZM162.496 82.6894C165.372 82.6894 166.81 84.8463 166.81 87.0034C166.81 89.1604 164.653 91.3177 162.496 91.3177C160.339 91.3177 158.182 89.1604 158.182 87.0034C157.463 84.8463 159.62 82.6894 162.496 82.6894Z" fill="url(#paint1_linear_318_330)"/>
<path d="M218.577 148.836C214.263 145.96 208.51 146.679 205.634 150.993L178.312 186.944C175.435 191.258 176.155 197.01 180.469 199.886C184.783 202.762 190.535 202.043 193.411 197.729L220.734 161.059C223.61 157.464 222.891 151.712 218.577 148.836Z" fill="url(#paint2_linear_318_330)"/>
<defs>
<linearGradient id="paint0_linear_318_330" x1="203.482" y1="0" x2="203.482" y2="431.411" gradientUnits="userSpaceOnUse">
<stop stop-color="#FFDB6E"/>
<stop offset="1" stop-color="#FFC261"/>
</linearGradient>
<linearGradient id="paint1_linear_318_330" x1="162.479" y1="63.9951" x2="162.479" y2="110.012" gradientUnits="userSpaceOnUse">
<stop stop-color="#FFDB6E"/>
<stop offset="1" stop-color="#FFC261"/>
</linearGradient>
<linearGradient id="paint2_linear_318_330" x1="199.523" y1="147.11" x2="199.523" y2="201.612" gradientUnits="userSpaceOnUse">
<stop stop-color="#FFDB6E"/>
<stop offset="1" stop-color="#FFC261"/>
</linearGradient>
</defs>
</svg>
