<svg width="420" height="416" viewBox="0 0 420 416" fill="none" xmlns="http://www.w3.org/2000/svg">
<path d="M43.9239 347.107C36.7337 354.297 36.7337 365.801 43.9239 372.992C51.1141 380.182 62.6184 380.182 69.8086 372.992C76.9988 365.801 76.9988 354.297 69.8086 347.107C66.2135 343.512 51.1141 339.198 43.9239 347.107Z" fill="url(#paint0_linear_318_384)"/>
<path d="M417.816 197.55L363.889 145.062C361.013 142.186 357.418 141.467 353.823 142.905L335.848 150.814L345.195 135.715C347.352 132.12 346.633 127.806 343.757 124.21L291.269 72.441C288.393 69.5649 284.079 68.846 280.483 71.0031L226.557 99.0448L251.723 42.2424C253.161 38.6473 252.442 34.333 249.565 32.1759L220.086 2.69632C216.491 -0.898773 210.738 -0.898773 207.143 2.69632C197.077 12.7626 105.043 103.359 70.5298 137.872C48.2403 160.161 48.2403 196.112 70.5298 218.402L101.448 249.32L82.7533 268.014L23.0746 312.593C-4.96717 333.445 -7.8432 373.71 16.6034 398.157C41.0501 422.603 82.0341 420.446 102.886 392.404L148.184 333.445L166.878 314.75L197.796 345.668C220.086 367.958 256.756 367.958 279.045 345.668C340.162 285.271 319.31 306.122 323.625 301.808C326.501 318.345 343.757 328.412 360.294 322.66V333.445C360.294 348.544 372.518 360.768 387.617 360.768C402.717 360.768 414.94 348.544 414.94 333.445V209.774C421.411 206.179 420.692 201.145 417.816 197.55ZM214.334 22.8288L220.805 29.2999L143.151 106.235C139.556 109.83 139.556 115.582 143.151 119.177C146.746 122.772 152.498 122.772 156.093 119.177L232.309 43.6803L199.234 115.582C195.639 123.491 204.267 131.401 212.177 127.806L283.359 90.4165L285.516 92.5737L235.185 142.186C229.433 147.938 233.747 158.004 241.656 158.004C243.813 158.004 246.69 157.285 248.128 155.128L298.459 105.516L304.211 111.268L235.185 179.575C229.433 185.327 233.747 195.393 241.656 195.393C243.813 195.393 246.69 194.674 248.128 192.517L317.153 124.21L325.062 132.12L304.211 166.633C299.897 174.542 307.806 183.17 315.715 179.575L355.261 161.599L368.204 174.542L294.864 248.601C291.269 252.196 291.269 257.948 294.864 261.543C298.459 265.138 304.211 265.138 307.806 261.543L381.146 188.203L396.964 204.022C396.245 204.741 328.658 271.609 327.22 273.047L291.988 307.56L107.919 126.367L214.334 22.8288ZM89.2244 381.619C82.0342 391.685 70.5298 397.438 58.3064 397.438C36.0169 397.438 17.3224 378.024 19.4795 356.453C20.1985 344.949 25.9507 334.883 34.5789 328.412L88.5053 288.147L130.208 329.131L89.2244 381.619ZM155.374 301.089L142.432 314.031L102.886 275.204L115.828 262.262L155.374 301.089ZM212.895 332.726C179.821 300.37 154.655 275.204 122.299 242.849L84.1912 205.459C74.1249 195.393 71.2489 181.732 74.1249 169.509L188.449 281.676C190.606 283.833 192.763 284.552 194.92 284.552C202.829 284.552 207.143 274.485 201.391 268.733L83.4721 152.252C84.1911 150.814 84.1912 151.533 96.4146 139.31C117.985 160.88 259.632 300.37 280.483 321.222L268.979 332.726C252.442 347.825 227.995 347.825 212.895 332.726ZM353.104 305.403C348.071 305.403 343.757 301.089 343.757 296.056V283.114L362.452 265.138V296.056C362.452 301.089 358.137 305.403 353.104 305.403ZM389.774 342.073C384.741 342.073 380.427 337.759 380.427 332.726C380.427 284.552 380.427 308.279 380.427 246.444L399.122 228.468V332.726C399.841 337.759 395.526 342.073 389.774 342.073Z" fill="url(#paint1_linear_318_384)"/>
<defs>
<linearGradient id="paint0_linear_318_384" x1="56.8663" y1="342.65" x2="56.8663" y2="378.384" gradientUnits="userSpaceOnUse">
<stop stop-color="#FFDB6E"/>
<stop offset="1" stop-color="#FFC261"/>
</linearGradient>
<linearGradient id="paint1_linear_318_384" x1="209.965" y1="0" x2="209.965" y2="415.075" gradientUnits="userSpaceOnUse">
<stop stop-color="#FFDB6E"/>
<stop offset="1" stop-color="#FFC261"/>
</linearGradient>
</defs>
</svg>
