<svg width="531" height="62" viewBox="0 0 531 62" fill="none" xmlns="http://www.w3.org/2000/svg">
<path d="M36.9064 29.7423H67.8559V59.9521H56.4494L55.6708 52.1272C53.1533 54.9821 49.987 57.2141 46.1718 58.8232C42.3826 60.4323 37.9835 61.2368 32.9745 61.2368C26.8235 61.2368 21.2435 60.043 16.2345 57.6553C11.2254 55.2416 7.26754 51.7379 4.36075 47.1441C1.45396 42.5503 0.00056715 37.0871 0.00056715 30.7545C0.00056715 24.3959 1.46694 18.9327 4.39968 14.3649C7.33243 9.77109 11.3552 6.28035 16.4681 3.89263C21.6068 1.47895 27.4074 0.272114 33.8699 0.272114C40.1247 0.272114 45.6138 1.24537 50.3373 3.19188C55.0868 5.1384 58.889 7.83756 61.7439 11.2894C64.6247 14.7412 66.4934 18.725 67.3499 23.2409H51.077C50.5579 21.2944 49.5068 19.6075 47.9237 18.18C46.3665 16.7526 44.381 15.6625 41.9673 14.9099C39.5796 14.1313 36.8934 13.742 33.9088 13.742C30.2494 13.742 27.096 14.3908 24.4487 15.6885C21.8015 16.9602 19.7641 18.8678 18.3367 21.4112C16.9093 23.9547 16.1955 27.0691 16.1955 30.7545C16.1955 34.4918 16.9612 37.6581 18.4924 40.2535C20.0496 42.8488 22.2557 44.8083 25.1106 46.1319C27.9914 47.4555 31.4043 48.1174 35.3492 48.1174C39.346 48.1174 42.8498 47.5204 45.8604 46.3266C48.8969 45.1068 51.2327 43.3679 52.8678 41.1099H36.9064V29.7423ZM131.27 15.4549L128.467 37.6841L131.27 59.9521H114.764L113.596 50.9593C111.442 54.2294 108.756 56.7599 105.537 58.5507C102.319 60.3415 98.7246 61.2368 94.7537 61.2368C90.4454 61.2368 86.6173 60.2636 83.2693 58.3171C79.9472 56.3446 77.3649 53.5806 75.5222 50.0249C73.6795 46.4434 72.7581 42.3427 72.7581 37.723C72.7581 33.0773 73.6795 28.9767 75.5222 25.421C77.3649 21.8395 79.9472 19.0754 83.2693 17.1289C86.6173 15.1564 90.4454 14.1702 94.7537 14.1702C98.6986 14.1702 102.293 15.0526 105.537 16.8175C108.782 18.5823 111.481 21.0868 113.635 24.331L114.764 15.4549L131.27 15.4549ZM99.5421 49.0517C101.644 49.0517 103.656 48.5715 105.576 47.6113C107.523 46.625 109.223 45.2755 110.676 43.5625C112.155 41.8496 113.259 39.9031 113.985 37.723C113.259 35.5429 112.155 33.5964 110.676 31.8835C109.223 30.1446 107.523 28.795 105.576 27.8347C103.656 26.8485 101.644 26.3554 99.5421 26.3554C97.4658 26.3554 95.6102 26.8485 93.9751 27.8347C92.366 28.795 91.1072 30.1446 90.1988 31.8835C89.2905 33.5964 88.8363 35.5429 88.8363 37.723C88.8363 39.9031 89.2905 41.8496 90.1988 43.5625C91.1072 45.2755 92.366 46.625 93.9751 47.6113C95.6102 48.5715 97.4658 49.0517 99.5421 49.0517ZM188.672 45.4312C188.672 48.8311 187.634 51.7119 185.558 54.0737C183.507 56.4355 180.549 58.2262 176.682 59.4461C172.815 60.6399 168.195 61.2368 162.823 61.2368C157.32 61.2368 152.467 60.5621 148.263 59.2125C144.084 57.8629 140.814 55.9683 138.452 53.5287C136.09 51.0631 134.832 48.2212 134.676 45.0029H150.832C151.351 46.8197 152.688 48.2212 154.842 49.2074C157.022 50.1936 159.903 50.6868 163.484 50.6868C166.677 50.6868 169.077 50.3753 170.686 49.7524C172.322 49.1295 173.139 48.2082 173.139 46.9884C173.139 46.2876 172.867 45.7296 172.322 45.3144C171.802 44.8732 170.946 44.5228 169.752 44.2633C168.584 43.9778 166.975 43.7572 164.925 43.6015L157.061 43.0175C149.457 42.4465 144.032 41.0061 140.788 38.6962C137.544 36.3864 135.922 33.2201 135.922 29.1973C135.922 25.9271 136.947 23.1761 138.997 20.9441C141.074 18.6861 143.993 16.9991 147.757 15.8831C151.52 14.7412 155.932 14.1702 160.993 14.1702C165.924 14.1702 170.349 14.819 174.268 16.1167C178.213 17.4144 181.353 19.2311 183.689 21.5669C186.051 23.9028 187.401 26.5889 187.738 29.6255H171.582C171.167 28.0683 170.025 26.7836 168.156 25.7714C166.287 24.7592 163.653 24.2531 160.253 24.2531C157.424 24.2531 155.257 24.5646 153.752 25.1875C152.272 25.7844 151.533 26.6409 151.533 27.7569C151.533 28.7171 152 29.4438 152.934 29.9369C153.869 30.4301 155.569 30.7675 158.034 30.9491L168.351 31.7277C173.386 32.0911 177.395 32.8437 180.38 33.9857C183.365 35.1276 185.493 36.6459 186.765 38.5405C188.036 40.4092 188.672 42.7061 188.672 45.4312ZM250.497 15.4549L247.694 37.6841L250.497 59.9521H233.991L232.823 50.9593C230.669 54.2294 227.982 56.7599 224.764 58.5507C221.546 60.3415 217.951 61.2368 213.981 61.2368C209.672 61.2368 205.844 60.2636 202.496 58.3171C199.174 56.3446 196.592 53.5806 194.749 50.0249C192.906 46.4434 191.985 42.3427 191.985 37.723C191.985 33.0773 192.906 28.9767 194.749 25.421C196.592 21.8395 199.174 19.0754 202.496 17.1289C205.844 15.1564 209.672 14.1702 213.981 14.1702C217.925 14.1702 221.52 15.0526 224.764 16.8175C228.008 18.5823 230.708 21.0868 232.862 24.331L233.991 15.4549H250.497ZM218.769 49.0517C220.871 49.0517 222.883 48.5715 224.803 47.6113C226.75 46.625 228.45 45.2755 229.903 43.5625C231.382 41.8496 232.485 39.9031 233.212 37.723C232.485 35.5429 231.382 33.5964 229.903 31.8835C228.45 30.1446 226.75 28.795 224.803 27.8347C222.883 26.8485 220.871 26.3554 218.769 26.3554C216.693 26.3554 214.837 26.8485 213.202 27.8347C211.593 28.795 210.334 30.1446 209.426 31.8835C208.517 33.5964 208.063 35.5429 208.063 37.723C208.063 39.9031 208.517 41.8496 209.426 43.5625C210.334 45.2755 211.593 46.625 213.202 47.6113C214.837 48.5715 216.693 49.0517 218.769 49.0517ZM289.674 14.1702C293.879 14.1702 297.499 15.0267 300.536 16.7396C303.572 18.4266 305.882 20.8403 307.465 23.9806C309.049 27.121 309.84 30.8194 309.84 35.0757V59.9521H293.957V37.4115C293.957 34.0895 293.113 31.5461 291.426 29.7812C289.739 28.0164 287.312 27.134 284.146 27.134C281.94 27.134 280.02 27.6011 278.384 28.5355C276.775 29.4438 275.53 30.7675 274.647 32.5063C273.791 34.2193 273.363 36.2307 273.363 38.5405V59.9521H257.44V30.8323L254.52 15.4549H270.443L271.961 24.7203C273.882 21.2944 276.373 18.6861 279.436 16.8953C282.524 15.0786 285.937 14.1702 289.674 14.1702ZM387.166 41.1878C386.725 45.1327 385.271 48.6235 382.806 51.66C380.34 54.6966 377.109 57.0583 373.112 58.7453C369.115 60.4063 364.677 61.2368 359.798 61.2368C354.374 61.2368 349.559 60.2506 345.355 58.2781C341.176 56.3057 337.919 53.5416 335.583 49.986C333.273 46.4044 332.119 42.3168 332.119 37.723C332.119 33.1292 333.273 29.0545 335.583 25.4989C337.919 21.9173 341.176 19.1403 345.355 17.1678C349.559 15.1694 354.374 14.1702 359.798 14.1702C364.677 14.1702 369.115 15.0137 373.112 16.7007C377.109 18.3617 380.34 20.7235 382.806 23.786C385.271 26.8225 386.725 30.3133 387.166 34.2582H371.36C370.815 31.6369 369.505 29.6125 367.428 28.1851C365.352 26.7317 362.809 26.005 359.798 26.005C357.436 26.005 355.373 26.4592 353.608 27.3676C351.869 28.2759 350.52 29.6125 349.559 31.3774C348.625 33.1422 348.158 35.2574 348.158 37.723C348.158 41.4343 349.196 44.3152 351.272 46.3655C353.374 48.3899 356.216 49.4021 359.798 49.4021C362.783 49.4021 365.313 48.6624 367.389 47.183C369.492 45.6777 370.815 43.6793 371.36 41.1878H387.166ZM391.932 59.9521V-0.000395917L407.855 -0.000395917V59.9521H391.932ZM468.849 59.9521H452.966L451.448 50.7646C449.553 54.1645 447.113 56.7599 444.129 58.5507C441.144 60.3155 437.835 61.1979 434.201 61.1979C430.101 61.1979 426.571 60.3544 423.612 58.6675C420.654 56.9545 418.396 54.5279 416.839 51.3875C415.281 48.2471 414.503 44.5617 414.503 40.3313V15.4549H430.425V38.0344C430.425 41.3305 431.217 43.861 432.8 45.6258C434.409 47.3647 436.706 48.2342 439.691 48.2342C442.987 48.2342 445.53 47.2479 447.321 45.2755C449.138 43.277 450.046 40.4741 450.046 36.8665V15.4549H465.969V44.6136L468.849 59.9521ZM508.585 14.1702C512.893 14.1702 516.708 15.1564 520.03 17.1289C523.353 19.0754 525.935 21.8395 527.778 25.421C529.62 28.9767 530.542 33.0773 530.542 37.723C530.542 42.3427 529.62 46.4434 527.778 50.0249C525.935 53.5806 523.353 56.3446 520.03 58.3171C516.708 60.2636 512.893 61.2368 508.585 61.2368C504.692 61.2368 501.162 60.3804 497.996 58.6675C494.83 56.9545 492.156 54.5149 489.976 51.3486V59.9521H474.054V-0.000395917H489.976V23.9028C492.13 20.7883 494.804 18.3876 497.996 16.7007C501.188 15.0137 504.718 14.1702 508.585 14.1702ZM503.758 49.0517C505.834 49.0517 507.69 48.5715 509.325 47.6113C510.96 46.625 512.231 45.2755 513.14 43.5625C514.048 41.8496 514.502 39.9031 514.502 37.723C514.502 35.5429 514.048 33.5964 513.14 31.8835C512.231 30.1446 510.96 28.795 509.325 27.8347C507.69 26.8485 505.834 26.3554 503.758 26.3554C501.655 26.3554 499.631 26.8485 497.685 27.8347C495.764 28.795 494.064 30.1446 492.585 31.8835C491.131 33.5964 490.041 35.5429 489.315 37.723C490.041 39.9031 491.131 41.8496 492.585 43.5625C494.064 45.2755 495.764 46.625 497.685 47.6113C499.631 48.5715 501.655 49.0517 503.758 49.0517Z" fill="white"/>
</svg>
