<svg width="428" height="423" viewBox="0 0 428 423" fill="none" xmlns="http://www.w3.org/2000/svg">
<path d="M394.022 183.35C411.998 183.35 427.816 168.25 427.816 150.275V33.0747C427.816 15.0992 412.717 0 394.022 0H34.5128C16.5373 0 0.718843 15.0992 0.718843 33.0747V150.275C0.718843 168.25 15.8183 183.35 34.5128 183.35H46.7362V192.697H33.7937C15.8183 192.697 0 207.796 0 225.772V388.989C0 406.964 15.0993 422.064 33.7937 422.064H394.022C411.998 422.064 427.816 406.964 427.816 388.989V225.053C427.816 207.077 412.717 191.978 394.022 191.978H381.799V182.63H394.022V183.35ZM19.4134 150.275V33.0747C19.4134 25.1655 25.8845 18.6943 33.7937 18.6943H394.022C401.931 18.6943 408.403 25.1655 408.403 33.0747V150.275C408.403 158.184 401.931 164.655 394.022 164.655H374.609C369.575 158.903 362.385 155.308 354.476 155.308C312.054 155.308 312.773 154.589 307.74 156.746C302.707 158.903 299.831 160.341 295.517 164.655H133.737C128.704 158.903 122.233 156.027 115.043 155.308C113.605 155.308 74.0588 155.308 72.6207 155.308C66.1495 155.308 58.9595 158.903 53.9264 164.655H34.5128C25.8846 164.655 19.4134 158.184 19.4134 150.275ZM140.209 192.697V183.35H288.326V192.697H140.209ZM67.5877 178.317C69.0258 176.16 70.4637 174.722 72.6207 174.003C74.0588 174.003 71.9018 174.003 113.605 174.003C117.919 174.003 122.233 177.597 122.233 182.63V192.697H66.8687C66.1496 184.069 65.4307 181.912 67.5877 178.317ZM409.122 225.053V351.6C409.122 359.509 402.65 365.98 394.741 365.98H232.243C227.21 365.98 222.896 370.295 222.896 375.328C222.896 380.361 227.21 384.675 232.243 384.675H394.022C399.055 384.675 404.088 383.237 408.403 381.08V388.27C408.403 396.179 401.931 402.65 394.022 402.65H34.5128C26.6036 402.65 20.1324 396.179 20.1324 388.27V381.08C24.4465 383.237 29.4797 384.675 34.5128 384.675H176.878C181.912 384.675 186.226 380.361 186.226 375.328C186.226 370.295 181.912 365.98 176.878 365.98H34.5128C26.6036 365.98 20.1324 359.509 20.1324 351.6V225.053C20.1324 217.144 26.6036 210.672 34.5128 210.672C193.416 210.672 245.185 210.672 394.741 210.672C402.65 210.672 409.122 217.144 409.122 225.053ZM307.021 192.697C307.021 183.35 305.583 179.755 310.616 176.16C312.054 175.441 312.773 174.721 313.492 174.721C314.93 174.721 312.773 174.721 354.476 174.721C359.509 174.721 363.104 178.317 363.104 183.35V193.416L307.021 192.697Z" fill="url(#paint0_linear_318_213)"/>
<path d="M89.1687 293.357C71.1932 293.357 56.0938 307.738 56.0938 325.713C56.0938 343.689 70.4742 358.069 89.1687 358.069C107.144 358.069 122.244 343.689 122.244 325.713C122.244 307.738 106.425 293.357 89.1687 293.357ZM89.1687 338.656C81.9785 338.656 75.5073 332.185 75.5073 324.994C75.5073 317.804 81.9785 311.333 89.1687 311.333C97.0779 311.333 102.83 317.804 102.83 324.994C102.83 332.904 96.3588 338.656 89.1687 338.656Z" fill="url(#paint1_linear_318_213)"/>
<path d="M89.1687 220.018C71.1932 220.018 56.0938 234.398 56.0938 252.373C56.0938 270.349 70.4742 284.729 89.1687 284.729C107.144 284.729 122.244 270.349 122.244 252.373C122.244 234.398 106.425 220.018 89.1687 220.018ZM89.1687 266.035C81.9785 266.035 75.5073 259.564 75.5073 252.373C75.5073 245.183 81.9785 238.712 89.1687 238.712C97.0779 238.712 102.83 245.183 102.83 252.373C102.83 259.564 96.3588 266.035 89.1687 266.035Z" fill="url(#paint2_linear_318_213)"/>
<path d="M172.551 293.357C154.576 293.357 139.477 307.738 139.477 325.713C139.477 343.689 153.857 358.069 172.551 358.069C190.527 358.069 205.626 343.689 205.626 325.713C204.907 307.738 190.527 293.357 172.551 293.357ZM172.551 338.656C165.361 338.656 158.89 332.185 158.89 324.994C158.89 317.804 165.361 311.333 172.551 311.333C179.742 311.333 186.213 317.804 186.213 324.994C186.932 332.904 179.742 338.656 172.551 338.656Z" fill="url(#paint3_linear_318_213)"/>
<path d="M172.551 220.018C154.576 220.018 139.477 234.398 139.477 252.373C139.477 270.349 153.857 284.729 172.551 284.729C190.527 284.729 205.626 270.349 205.626 252.373C205.626 234.398 190.527 220.018 172.551 220.018ZM172.551 266.035C165.361 266.035 158.89 259.564 158.89 252.373C158.89 245.183 165.361 238.712 172.551 238.712C179.742 238.712 186.213 245.183 186.213 252.373C186.213 259.564 179.742 266.035 172.551 266.035Z" fill="url(#paint4_linear_318_213)"/>
<path d="M255.973 293.357C237.998 293.357 222.898 307.738 222.898 325.713C222.898 343.689 237.279 358.069 255.973 358.069C273.949 358.069 289.048 343.689 289.048 325.713C289.048 307.738 273.949 293.357 255.973 293.357ZM255.973 338.656C248.783 338.656 242.312 332.185 242.312 324.994C242.312 317.804 248.783 311.333 255.973 311.333C263.163 311.333 269.635 317.804 269.635 324.994C270.354 332.904 263.882 338.656 255.973 338.656Z" fill="url(#paint5_linear_318_213)"/>
<path d="M255.973 220.018C237.998 220.018 222.898 234.398 222.898 252.373C222.898 270.349 237.279 284.729 255.973 284.729C273.949 284.729 289.048 270.349 289.048 252.373C289.048 234.398 273.949 220.018 255.973 220.018ZM255.973 266.035C248.783 266.035 242.312 259.564 242.312 252.373C242.312 245.183 248.783 238.712 255.973 238.712C263.163 238.712 269.635 245.183 269.635 252.373C270.354 259.564 263.882 266.035 255.973 266.035Z" fill="url(#paint6_linear_318_213)"/>
<path d="M339.387 293.357C321.412 293.357 306.312 307.738 306.312 325.713C306.312 343.689 320.693 358.069 339.387 358.069C358.082 358.069 372.462 343.689 372.462 325.713C372.462 307.738 357.363 293.357 339.387 293.357ZM339.387 338.656C332.197 338.656 325.726 332.185 325.726 324.994C325.726 317.804 332.197 311.333 339.387 311.333C346.578 311.333 353.049 317.804 353.049 324.994C353.049 332.904 347.297 338.656 339.387 338.656Z" fill="url(#paint7_linear_318_213)"/>
<path d="M339.387 220.018C321.412 220.018 306.312 234.398 306.312 252.373C306.312 270.349 320.693 284.729 339.387 284.729C358.082 284.729 372.462 270.349 372.462 252.373C372.462 234.398 357.363 220.018 339.387 220.018ZM339.387 266.035C332.197 266.035 325.726 259.564 325.726 252.373C325.726 245.183 332.197 238.712 339.387 238.712C346.578 238.712 353.049 245.183 353.049 252.373C353.049 259.564 347.297 266.035 339.387 266.035Z" fill="url(#paint8_linear_318_213)"/>
<path d="M124.394 134.453C138.055 135.172 150.278 130.858 160.345 122.229L200.61 119.353C235.842 120.072 113.608 117.915 362.389 121.51C374.612 121.51 383.96 112.163 384.679 100.659C385.398 88.4355 376.769 78.3694 364.546 76.9313L204.205 58.9559L163.94 52.4845C154.592 41.6992 140.931 36.666 127.989 36.666C104.261 36.666 66.1533 61.1129 43.1447 73.3362C35.2355 77.6503 38.1116 89.8734 46.7398 90.5924C60.4011 91.3114 74.7814 103.535 88.4428 114.32C100.666 124.386 111.451 133.734 124.394 134.453ZM360.951 95.6256C363.108 95.6256 364.546 97.7825 364.546 99.9396C364.546 102.097 362.389 103.535 360.232 103.535L208.519 101.378L209.957 78.369L360.951 95.6256ZM174.725 73.3362L191.981 76.212L190.544 102.097L173.287 103.535C179.039 87.7163 174.725 73.3362 174.725 73.3362ZM128.708 54.6415C153.874 56.0795 167.535 85.5593 150.997 104.973C145.245 112.163 135.898 116.477 125.832 115.758C115.047 115.039 93.4759 89.8733 71.1864 78.369C83.4097 71.8978 113.608 53.9225 128.708 54.6415Z" fill="url(#paint9_linear_318_213)"/>
<path d="M66.1633 127.986C66.1633 122.953 61.8493 118.639 56.8161 118.639C51.783 118.639 47.4688 122.953 47.4688 127.986C47.4688 133.019 51.783 137.333 56.8161 137.333C61.8493 137.333 66.1633 133.019 66.1633 127.986Z" fill="url(#paint10_linear_318_213)"/>
<path d="M214.269 137.33C209.236 137.33 204.922 141.644 204.922 146.677C204.922 151.71 209.236 156.025 214.269 156.025C219.302 156.025 223.616 151.71 223.616 146.677C223.616 141.644 219.302 137.33 214.269 137.33Z" fill="url(#paint11_linear_318_213)"/>
<path d="M307.011 54.6455C312.044 54.6455 316.359 50.3315 316.359 45.2983C316.359 40.2652 312.044 35.9512 307.011 35.9512C301.978 35.9512 297.664 40.2652 297.664 45.2983C297.664 51.0505 301.259 54.6455 307.011 54.6455Z" fill="url(#paint12_linear_318_213)"/>
<path d="M372.449 63.9912C377.482 63.9912 381.796 59.6772 381.796 54.644C381.796 49.6109 377.482 45.2969 372.449 45.2969C367.416 45.2969 363.102 49.6109 363.102 54.644C363.102 59.6772 366.697 63.9912 372.449 63.9912Z" fill="url(#paint13_linear_318_213)"/>
<defs>
<linearGradient id="paint0_linear_318_213" x1="213.908" y1="0" x2="213.908" y2="422.064" gradientUnits="userSpaceOnUse">
<stop stop-color="#FFDB6E"/>
<stop offset="1" stop-color="#FFC261"/>
</linearGradient>
<linearGradient id="paint1_linear_318_213" x1="89.1687" y1="293.357" x2="89.1687" y2="358.069" gradientUnits="userSpaceOnUse">
<stop stop-color="#FFDB6E"/>
<stop offset="1" stop-color="#FFC261"/>
</linearGradient>
<linearGradient id="paint2_linear_318_213" x1="89.1687" y1="220.018" x2="89.1687" y2="284.729" gradientUnits="userSpaceOnUse">
<stop stop-color="#FFDB6E"/>
<stop offset="1" stop-color="#FFC261"/>
</linearGradient>
<linearGradient id="paint3_linear_318_213" x1="172.551" y1="293.357" x2="172.551" y2="358.069" gradientUnits="userSpaceOnUse">
<stop stop-color="#FFDB6E"/>
<stop offset="1" stop-color="#FFC261"/>
</linearGradient>
<linearGradient id="paint4_linear_318_213" x1="172.551" y1="220.018" x2="172.551" y2="284.729" gradientUnits="userSpaceOnUse">
<stop stop-color="#FFDB6E"/>
<stop offset="1" stop-color="#FFC261"/>
</linearGradient>
<linearGradient id="paint5_linear_318_213" x1="255.973" y1="293.357" x2="255.973" y2="358.069" gradientUnits="userSpaceOnUse">
<stop stop-color="#FFDB6E"/>
<stop offset="1" stop-color="#FFC261"/>
</linearGradient>
<linearGradient id="paint6_linear_318_213" x1="255.973" y1="220.018" x2="255.973" y2="284.729" gradientUnits="userSpaceOnUse">
<stop stop-color="#FFDB6E"/>
<stop offset="1" stop-color="#FFC261"/>
</linearGradient>
<linearGradient id="paint7_linear_318_213" x1="339.387" y1="293.357" x2="339.387" y2="358.069" gradientUnits="userSpaceOnUse">
<stop stop-color="#FFDB6E"/>
<stop offset="1" stop-color="#FFC261"/>
</linearGradient>
<linearGradient id="paint8_linear_318_213" x1="339.387" y1="220.018" x2="339.387" y2="284.729" gradientUnits="userSpaceOnUse">
<stop stop-color="#FFDB6E"/>
<stop offset="1" stop-color="#FFC261"/>
</linearGradient>
<linearGradient id="paint9_linear_318_213" x1="211.614" y1="36.666" x2="211.614" y2="134.53" gradientUnits="userSpaceOnUse">
<stop stop-color="#FFDB6E"/>
<stop offset="1" stop-color="#FFC261"/>
</linearGradient>
<linearGradient id="paint10_linear_318_213" x1="56.816" y1="118.639" x2="56.816" y2="137.333" gradientUnits="userSpaceOnUse">
<stop stop-color="#FFDB6E"/>
<stop offset="1" stop-color="#FFC261"/>
</linearGradient>
<linearGradient id="paint11_linear_318_213" x1="214.269" y1="137.33" x2="214.269" y2="156.025" gradientUnits="userSpaceOnUse">
<stop stop-color="#FFDB6E"/>
<stop offset="1" stop-color="#FFC261"/>
</linearGradient>
<linearGradient id="paint12_linear_318_213" x1="307.011" y1="35.9512" x2="307.011" y2="54.6455" gradientUnits="userSpaceOnUse">
<stop stop-color="#FFDB6E"/>
<stop offset="1" stop-color="#FFC261"/>
</linearGradient>
<linearGradient id="paint13_linear_318_213" x1="372.449" y1="45.2969" x2="372.449" y2="63.9912" gradientUnits="userSpaceOnUse">
<stop stop-color="#FFDB6E"/>
<stop offset="1" stop-color="#FFC261"/>
</linearGradient>
</defs>
</svg>
