<svg width="443" height="441" viewBox="0 0 443 441" fill="none" xmlns="http://www.w3.org/2000/svg">
<path d="M434.287 46.0169H369.575V30.1984C369.575 13.661 355.914 0 339.377 0H57.5215C40.9841 0 27.3226 13.661 27.3226 30.1984V36.6698H9.34716C4.31403 36.6698 0 40.9838 0 46.0169V92.0343C0 97.0674 4.31403 101.381 9.34716 101.381H27.3226V117.2C27.3226 133.737 40.9841 147.399 57.5215 147.399H63.9924V174.721C63.9924 194.135 84.1253 207.077 102.101 200.606C106.415 215.705 122.952 224.334 138.771 219.301V220.02C138.771 235.119 150.994 247.342 166.093 247.342C181.193 247.342 193.416 235.119 193.416 220.02V146.68H338.658C355.195 146.68 368.857 133.018 368.857 116.481V100.663H386.832V193.416L226.491 229.367C222.177 230.086 219.301 234.4 219.301 237.995V284.012H209.954C204.92 284.012 200.606 288.326 200.606 293.36V430.692C200.606 435.725 204.92 440.039 209.954 440.039H284.012C289.046 440.039 293.36 435.725 293.36 430.692V293.36C293.36 288.326 289.046 284.012 284.012 284.012H274.665V273.946L435.006 237.995C439.32 237.276 442.197 232.962 442.197 229.367V54.6452C443.635 49.6121 439.32 46.0169 434.287 46.0169ZM16.5373 82.6872V54.6452H25.8845V81.9679C25.8845 82.6869 16.5373 82.6872 16.5373 82.6872ZM174.003 220.02C174.003 225.053 169.688 229.367 164.655 229.367C159.622 229.367 155.308 225.053 155.308 220.02C155.308 200.606 155.308 184.069 155.308 165.374C155.308 160.341 150.994 156.027 145.961 156.027C140.928 156.027 136.614 160.341 136.614 165.374V192.697C136.614 197.73 132.3 202.044 127.266 202.044C122.233 202.044 117.919 197.73 117.919 192.697V174.002C117.919 168.969 113.605 164.655 108.572 164.655C103.539 164.655 99.2245 168.969 99.2245 174.002C99.2245 179.035 94.9105 183.35 89.8773 183.35C84.8442 183.35 80.5302 179.035 80.5302 174.002V146.68H173.283V220.02H174.003ZM350.162 116.481C350.162 122.952 344.41 128.704 337.939 128.704H56.8022C50.3311 128.704 44.5793 122.952 44.5793 116.481C44.5793 52.488 44.5793 66.8684 44.5793 30.1984C44.5793 23.7273 50.3311 17.9755 56.8022 17.9755H338.658C345.129 17.9755 350.881 23.7273 350.881 30.1984C350.162 61.1162 350.162 84.8439 350.162 116.481ZM276.822 422.064H220.739V302.707C221.458 302.707 268.194 302.707 267.475 302.707H276.822V422.064ZM424.94 222.177L264.599 258.127C260.285 258.846 257.409 263.161 257.409 266.756V284.012H239.433V245.185L399.774 209.234C404.088 208.515 406.964 204.92 406.964 199.887V92.0343C406.964 87.0012 402.65 82.6872 397.617 82.6872H370.295V63.9924H426.378V222.177H424.94Z" fill="url(#paint0_linear_318_277)"/>
<path d="M238.726 36.667H81.98C76.9468 36.667 72.6328 40.981 72.6328 46.0141C72.6328 51.0473 76.9468 55.3613 81.98 55.3613H240.164C245.197 55.3613 249.512 51.0473 249.512 46.0141C248.793 40.981 245.198 36.667 238.726 36.667Z" fill="url(#paint1_linear_318_277)"/>
<path d="M304.873 36.667H277.55C272.517 36.667 268.203 40.981 268.203 46.0141C268.203 51.0473 272.517 55.3613 277.55 55.3613H304.873C309.906 55.3613 314.221 51.0473 314.221 46.0141C314.221 40.981 309.906 36.667 304.873 36.667Z" fill="url(#paint2_linear_318_277)"/>
<defs>
<linearGradient id="paint0_linear_318_277" x1="221.238" y1="0" x2="221.238" y2="440.039" gradientUnits="userSpaceOnUse">
<stop stop-color="#FFDB6E"/>
<stop offset="1" stop-color="#FFC261"/>
</linearGradient>
<linearGradient id="paint1_linear_318_277" x1="161.072" y1="36.667" x2="161.072" y2="55.3613" gradientUnits="userSpaceOnUse">
<stop stop-color="#FFDB6E"/>
<stop offset="1" stop-color="#FFC261"/>
</linearGradient>
<linearGradient id="paint2_linear_318_277" x1="291.212" y1="36.667" x2="291.212" y2="55.3613" gradientUnits="userSpaceOnUse">
<stop stop-color="#FFDB6E"/>
<stop offset="1" stop-color="#FFC261"/>
</linearGradient>
</defs>
</svg>
